<mxfile host="app.diagrams.net" modified="2021-09-16T07:37:48.667Z" agent="5.0 (Windows NT 10.0; Win64; x64) AppleWebKit/537.36 (KHTML, like Gecko) Chrome/90.0.4430.212 Safari/537.36" etag="Pf5xRV1dQtUh8ADJnevk" version="14.7.6" type="github" pages="2">
  <diagram name="Page-1" id="c7558073-3199-34d8-9f00-42111426c3f3">
    <mxGraphModel dx="1422" dy="738" grid="1" gridSize="10" guides="1" tooltips="1" connect="1" arrows="1" fold="1" page="1" pageScale="1" pageWidth="826" pageHeight="1169" background="none" math="0" shadow="0">
      <root>
        <mxCell id="0" />
        <mxCell id="1" parent="0" />
        <mxCell id="2" value="&lt;p style=&quot;margin: 0px; margin-top: 4px; text-align: center; text-decoration: underline;&quot;&gt;&lt;strong&gt;Process 1&lt;br /&gt;&lt;/strong&gt;&lt;/p&gt;&lt;hr /&gt;&lt;p style=&quot;margin: 0px; margin-left: 8px;&quot;&gt;System Study&lt;/p&gt;&lt;p style=&quot;margin: 0px; margin-left: 8px;&quot;&gt;Preparation&lt;/p&gt;" style="verticalAlign=middle;align=center;overflow=fill;fontSize=12;fontFamily=Helvetica;html=1;rounded=1;fontStyle=1;strokeWidth=3;fillColor=#E6FFCC" parent="1" vertex="1">
          <mxGeometry x="236" y="236" width="110" height="90" as="geometry" />
        </mxCell>
        <mxCell id="3" value="Engineering" style="whiteSpace=wrap;align=center;verticalAlign=middle;fontStyle=1;strokeWidth=3;fillColor=#FFFFCC" parent="1" vertex="1">
          <mxGeometry x="246" y="126" width="90" height="60" as="geometry" />
        </mxCell>
        <mxCell id="4" value="Investors" style="whiteSpace=wrap;align=center;verticalAlign=middle;fontStyle=1;strokeWidth=3;fillColor=#FFFFCC" parent="1" vertex="1">
          <mxGeometry x="40" y="251" width="90" height="60" as="geometry" />
        </mxCell>
        <mxCell id="5" value="ON-DEMAND SYSTEM DEVELOPMENT" style="shape=process;whiteSpace=wrap;align=center;verticalAlign=middle;size=0.0475;fontStyle=1;strokeWidth=3;fillColor=#FFCCCC" parent="1" vertex="1">
          <mxGeometry x="200.99999999999991" y="391" width="400" height="50" as="geometry" />
        </mxCell>
        <mxCell id="6" value="&lt;p style=&quot;margin: 0px; margin-top: 4px; text-align: center; text-decoration: underline;&quot;&gt;&lt;strong&gt;Process 2&lt;br /&gt;&lt;/strong&gt;&lt;/p&gt;&lt;hr /&gt;&lt;p style=&quot;margin: 0px; margin-left: 8px;&quot;&gt;System Analysis&lt;/p&gt;" style="verticalAlign=middle;align=center;overflow=fill;fontSize=12;fontFamily=Helvetica;html=1;rounded=1;fontStyle=1;strokeWidth=3;fillColor=#E6FFCC" parent="1" vertex="1">
          <mxGeometry x="390" y="146" width="110" height="90" as="geometry" />
        </mxCell>
        <mxCell id="7" value="&lt;p style=&quot;margin: 0px; margin-top: 4px; text-align: center; text-decoration: underline;&quot;&gt;&lt;strong&gt;&lt;strong&gt;Process&lt;/strong&gt; 3&lt;br /&gt;&lt;/strong&gt;&lt;/p&gt;&lt;hr /&gt;&lt;p style=&quot;margin: 0px; margin-left: 8px;&quot;&gt;List Possible&lt;/p&gt;&lt;p style=&quot;margin: 0px; margin-left: 8px;&quot;&gt;System Solutions&lt;/p&gt;" style="verticalAlign=middle;align=center;overflow=fill;fontSize=12;fontFamily=Helvetica;html=1;rounded=1;fontStyle=1;strokeWidth=3;fillColor=#E6FFCC" parent="1" vertex="1">
          <mxGeometry x="681" y="371" width="110" height="90" as="geometry" />
        </mxCell>
        <mxCell id="8" value="&lt;p style=&quot;margin: 0px; margin-top: 4px; text-align: center; text-decoration: underline;&quot;&gt;&lt;strong&gt;&lt;strong&gt;Process&lt;/strong&gt; 4&lt;br /&gt;&lt;/strong&gt;&lt;/p&gt;&lt;hr /&gt;&lt;p style=&quot;margin: 0px; margin-left: 8px;&quot;&gt;Detail Chosen&lt;/p&gt;&lt;p style=&quot;margin: 0px; margin-left: 8px;&quot;&gt;Solution&lt;/p&gt;" style="verticalAlign=middle;align=center;overflow=fill;fontSize=12;fontFamily=Helvetica;html=1;rounded=1;fontStyle=1;strokeWidth=3;fillColor=#E6FFCC" parent="1" vertex="1">
          <mxGeometry x="560" y="241" width="110" height="90" as="geometry" />
        </mxCell>
        <mxCell id="9" value="&lt;p style=&quot;margin: 0px; margin-top: 4px; text-align: center; text-decoration: underline;&quot;&gt;&lt;strong&gt;&lt;strong&gt;Process&lt;/strong&gt; 5&lt;br /&gt;&lt;/strong&gt;&lt;/p&gt;&lt;hr /&gt;&lt;p style=&quot;margin: 0px; margin-left: 8px;&quot;&gt;New System&lt;/p&gt;&lt;p style=&quot;margin: 0px; margin-left: 8px;&quot;&gt;Design&lt;/p&gt;" style="verticalAlign=middle;align=center;overflow=fill;fontSize=12;fontFamily=Helvetica;html=1;rounded=1;fontStyle=1;strokeWidth=3;fillColor=#E6FFCC" parent="1" vertex="1">
          <mxGeometry x="540" y="510" width="110" height="90" as="geometry" />
        </mxCell>
        <mxCell id="10" value="&lt;p style=&quot;margin: 0px; margin-top: 4px; text-align: center; text-decoration: underline;&quot;&gt;&lt;strong&gt;&lt;strong&gt;Process&lt;/strong&gt; 6&lt;br /&gt;&lt;/strong&gt;&lt;/p&gt;&lt;hr /&gt;&lt;p style=&quot;margin: 0px; margin-left: 8px;&quot;&gt;New&lt;/p&gt;&lt;p style=&quot;margin: 0px; margin-left: 8px;&quot;&gt;System&lt;/p&gt;&lt;p style=&quot;margin: 0px; margin-left: 8px;&quot;&gt;Construction&lt;/p&gt;" style="verticalAlign=middle;align=center;overflow=fill;fontSize=12;fontFamily=Helvetica;html=1;rounded=1;fontStyle=1;strokeWidth=3;fillColor=#E6FFCC" parent="1" vertex="1">
          <mxGeometry x="188.49999999999991" y="510" width="110" height="90" as="geometry" />
        </mxCell>
        <mxCell id="12" value="Management" style="whiteSpace=wrap;align=center;verticalAlign=middle;fontStyle=1;strokeWidth=3;fillColor=#FFFFCC" parent="1" vertex="1">
          <mxGeometry x="691" y="60.00000000000002" width="90" height="60" as="geometry" />
        </mxCell>
        <mxCell id="13" value="Management" style="whiteSpace=wrap;align=center;verticalAlign=middle;fontStyle=1;strokeWidth=3;fillColor=#FFFFCC" parent="1" vertex="1">
          <mxGeometry x="353.50000000000006" y="650" width="90" height="60" as="geometry" />
        </mxCell>
        <mxCell id="14" value="Engineering" style="whiteSpace=wrap;align=center;verticalAlign=middle;fontStyle=1;strokeWidth=3;fillColor=#FFFFCC" parent="1" vertex="1">
          <mxGeometry x="34.99999999999997" y="524.9999999999999" width="90" height="60" as="geometry" />
        </mxCell>
        <mxCell id="15" value="Vendors" style="whiteSpace=wrap;align=center;verticalAlign=middle;fontStyle=1;strokeWidth=3;fillColor=#FFFFCC" parent="1" vertex="1">
          <mxGeometry x="549.9999999999999" y="650" width="90" height="60" as="geometry" />
        </mxCell>
        <mxCell id="36" value="" style="edgeStyle=none;noEdgeStyle=1;strokeColor=#990000;strokeWidth=2" parent="1" source="3" target="2" edge="1">
          <mxGeometry width="100" height="100" relative="1" as="geometry">
            <mxPoint x="20" y="250" as="sourcePoint" />
            <mxPoint x="120" y="150" as="targetPoint" />
          </mxGeometry>
        </mxCell>
        <mxCell id="37" value="" style="edgeStyle=none;noEdgeStyle=1;strokeColor=#990000;strokeWidth=2" parent="1" source="4" target="2" edge="1">
          <mxGeometry width="100" height="100" relative="1" as="geometry">
            <mxPoint x="280" y="190" as="sourcePoint" />
            <mxPoint x="380" y="90" as="targetPoint" />
          </mxGeometry>
        </mxCell>
        <mxCell id="11" value="&lt;p style=&quot;margin: 0px; margin-top: 4px; text-align: center; text-decoration: underline;&quot;&gt;&lt;strong&gt;&lt;strong&gt;Process&lt;/strong&gt; 7&lt;br /&gt;&lt;/strong&gt;&lt;/p&gt;&lt;hr /&gt;&lt;p style=&quot;margin: 0px; margin-left: 8px;&quot;&gt;New System&lt;/p&gt;&lt;p style=&quot;margin: 0px; margin-left: 8px;&quot;&gt;Startup and&lt;/p&gt;&lt;p style=&quot;margin: 0px; margin-left: 8px;&quot;&gt;Testing&lt;/p&gt;" style="verticalAlign=middle;align=center;overflow=fill;fontSize=12;fontFamily=Helvetica;html=1;rounded=1;fontStyle=1;strokeWidth=3;fillColor=#E6FFCC" parent="1" vertex="1">
          <mxGeometry x="343.49999999999994" y="510" width="110" height="90" as="geometry" />
        </mxCell>
        <mxCell id="51" value="" style="endArrow=none;noEdgeStyle=1;strokeColor=#990000;strokeWidth=2" parent="1" source="9" target="11" edge="1">
          <mxGeometry relative="1" as="geometry">
            <mxPoint x="205.00819672131135" y="481" as="sourcePoint" />
            <mxPoint x="400.32786885245895" y="650" as="targetPoint" />
          </mxGeometry>
        </mxCell>
        <mxCell id="52" value="Desired &#xa;functionality" style="text;spacingTop=-5;align=center" parent="1" vertex="1">
          <mxGeometry x="165" y="251" width="30" height="20" as="geometry" />
        </mxCell>
        <mxCell id="53" value="Desired &#xa;functionality" style="text;spacingTop=-5;align=center" parent="1" vertex="1">
          <mxGeometry x="241" y="196" width="30" height="20" as="geometry" />
        </mxCell>
        <mxCell id="54" value="Documentation&#xa;from similar projects" style="text;spacingTop=-5;align=center" parent="1" vertex="1">
          <mxGeometry x="186" y="341" width="30" height="20" as="geometry" />
        </mxCell>
        <mxCell id="55" value="" style="edgeStyle=elbowEdgeStyle;elbow=horizontal;strokeColor=#990000;strokeWidth=2" parent="1" source="5" target="2" edge="1">
          <mxGeometry width="100" height="100" relative="1" as="geometry">
            <mxPoint x="50" y="530" as="sourcePoint" />
            <mxPoint x="150" y="430" as="targetPoint" />
            <Array as="points">
              <mxPoint x="260" y="370" />
            </Array>
          </mxGeometry>
        </mxCell>
        <mxCell id="56" value="" style="edgeStyle=elbowEdgeStyle;elbow=horizontal;strokeColor=#990000;strokeWidth=2" parent="1" source="2" target="5" edge="1">
          <mxGeometry width="100" height="100" relative="1" as="geometry">
            <mxPoint x="50" y="500" as="sourcePoint" />
            <mxPoint x="150" y="400" as="targetPoint" />
            <Array as="points">
              <mxPoint x="280" y="360" />
            </Array>
          </mxGeometry>
        </mxCell>
        <mxCell id="57" value="Elaborate&#xa;cost/benefit&#xa;ratio" style="text;spacingTop=-5;align=center" parent="1" vertex="1">
          <mxGeometry x="306" y="341" width="30" height="20" as="geometry" />
        </mxCell>
        <mxCell id="58" value="" style="edgeStyle=elbowEdgeStyle;elbow=horizontal;strokeColor=#990000;strokeWidth=2" parent="1" source="5" target="6" edge="1">
          <mxGeometry width="100" height="100" relative="1" as="geometry">
            <mxPoint x="380" y="370" as="sourcePoint" />
            <mxPoint x="480" y="270" as="targetPoint" />
            <Array as="points">
              <mxPoint x="440" y="310" />
            </Array>
          </mxGeometry>
        </mxCell>
        <mxCell id="59" value="" style="edgeStyle=elbowEdgeStyle;elbow=horizontal;strokeColor=#990000;strokeWidth=2" parent="1" source="6" target="5" edge="1">
          <mxGeometry width="100" height="100" relative="1" as="geometry">
            <mxPoint x="350" y="370" as="sourcePoint" />
            <mxPoint x="450" y="270" as="targetPoint" />
            <Array as="points">
              <mxPoint x="460" y="320" />
            </Array>
          </mxGeometry>
        </mxCell>
        <mxCell id="60" value="Existing&#xa;documentation" style="text;spacingTop=-5;align=center" parent="1" vertex="1">
          <mxGeometry x="380.0000000000001" y="280.99999999999983" width="30" height="20" as="geometry" />
        </mxCell>
        <mxCell id="61" value="Necessary&#xa;resources" style="text;spacingTop=-5;align=center" parent="1" vertex="1">
          <mxGeometry x="481.0000000000002" y="251.00000000000006" width="30" height="20" as="geometry" />
        </mxCell>
        <mxCell id="62" value="Progress&#xa;reports" style="text;spacingTop=-5;align=center" parent="1" vertex="1">
          <mxGeometry x="545.0000000000001" y="100.00000000000003" width="30" height="20" as="geometry" />
        </mxCell>
        <mxCell id="63" value="Progress&#xa;reports" style="text;spacingTop=-5;align=center" parent="1" vertex="1">
          <mxGeometry x="640" y="146.0000000000001" width="30" height="20" as="geometry" />
        </mxCell>
        <mxCell id="64" value="Progress&#xa;reports" style="text;spacingTop=-5;align=center" parent="1" vertex="1">
          <mxGeometry x="751.0000000000001" y="261.0000000000001" width="30" height="20" as="geometry" />
        </mxCell>
        <mxCell id="65" value="" style="edgeStyle=elbowEdgeStyle;elbow=horizontal;strokeColor=#990000;strokeWidth=2" parent="1" source="6" target="12" edge="1">
          <mxGeometry width="100" height="100" relative="1" as="geometry">
            <mxPoint x="260" y="180.0000000000001" as="sourcePoint" />
            <mxPoint x="360" y="80.00000000000011" as="targetPoint" />
            <Array as="points">
              <mxPoint x="445" y="140" />
            </Array>
          </mxGeometry>
        </mxCell>
        <mxCell id="66" value="" style="edgeStyle=elbowEdgeStyle;elbow=vertical;entryX=0.25;entryY=1;strokeColor=#990000;strokeWidth=2" parent="1" source="8" target="12" edge="1">
          <mxGeometry width="100" height="100" relative="1" as="geometry">
            <mxPoint x="530" y="250" as="sourcePoint" />
            <mxPoint x="630" y="150" as="targetPoint" />
          </mxGeometry>
        </mxCell>
        <mxCell id="67" value="" style="edgeStyle=elbowEdgeStyle;elbow=horizontal;strokeColor=#990000;strokeWidth=2" parent="1" source="7" target="12" edge="1">
          <mxGeometry width="100" height="100" relative="1" as="geometry">
            <mxPoint x="660.0000000000002" y="360" as="sourcePoint" />
            <mxPoint x="760.0000000000002" y="260" as="targetPoint" />
          </mxGeometry>
        </mxCell>
        <mxCell id="68" value="" style="edgeStyle=elbowEdgeStyle;elbow=horizontal;strokeColor=#990000;strokeWidth=2" parent="1" source="8" target="5" edge="1">
          <mxGeometry width="100" height="100" relative="1" as="geometry">
            <mxPoint x="570" y="380" as="sourcePoint" />
            <mxPoint x="510" y="250" as="targetPoint" />
            <Array as="points">
              <mxPoint x="570" y="360" />
            </Array>
          </mxGeometry>
        </mxCell>
        <mxCell id="69" value="" style="edgeStyle=segmentEdgeStyle;strokeColor=#990000;strokeWidth=2" parent="1" source="5" target="8" edge="1">
          <mxGeometry width="100" height="100" relative="1" as="geometry">
            <mxPoint x="340" y="360" as="sourcePoint" />
            <mxPoint x="440" y="260" as="targetPoint" />
            <Array as="points">
              <mxPoint x="520" y="286" />
            </Array>
          </mxGeometry>
        </mxCell>
        <mxCell id="70" value="Existing&#xa;Models" style="text;spacingTop=-5;align=center" parent="1" vertex="1">
          <mxGeometry x="530.0000000000002" y="340.9999999999999" width="30" height="20" as="geometry" />
        </mxCell>
        <mxCell id="71" value="Equipment&#xa;specification" style="text;spacingTop=-5;align=center" parent="1" vertex="1">
          <mxGeometry x="615" y="341" width="30" height="20" as="geometry" />
        </mxCell>
        <mxCell id="72" value="" style="edgeStyle=elbowEdgeStyle;elbow=vertical;strokeColor=#990000;strokeWidth=2" parent="1" source="5" target="7" edge="1">
          <mxGeometry width="100" height="100" relative="1" as="geometry">
            <mxPoint x="500" y="500" as="sourcePoint" />
            <mxPoint x="600" y="400" as="targetPoint" />
            <Array as="points">
              <mxPoint x="650" y="410" />
            </Array>
          </mxGeometry>
        </mxCell>
        <mxCell id="73" value="" style="edgeStyle=elbowEdgeStyle;elbow=vertical;strokeColor=#990000;strokeWidth=2" parent="1" source="7" target="5" edge="1">
          <mxGeometry width="100" height="100" relative="1" as="geometry">
            <mxPoint x="460" y="500" as="sourcePoint" />
            <mxPoint x="560" y="400" as="targetPoint" />
            <Array as="points">
              <mxPoint x="650" y="430" />
            </Array>
          </mxGeometry>
        </mxCell>
        <mxCell id="74" value="Resources" style="text;spacingTop=-5;align=center" parent="1" vertex="1">
          <mxGeometry x="621" y="390.99999999999994" width="30" height="20" as="geometry" />
        </mxCell>
        <mxCell id="75" value="System &#xa;Advantages &#xa;and Limitations" style="text;spacingTop=-5;align=center" parent="1" vertex="1">
          <mxGeometry x="630" y="431.0000000000001" width="30" height="20" as="geometry" />
        </mxCell>
        <mxCell id="76" value="" style="edgeStyle=elbowEdgeStyle;elbow=horizontal;strokeColor=#990000;strokeWidth=2" parent="1" source="9" target="5" edge="1">
          <mxGeometry width="100" height="100" relative="1" as="geometry">
            <mxPoint x="420" y="580" as="sourcePoint" />
            <mxPoint x="520" y="480" as="targetPoint" />
            <Array as="points">
              <mxPoint x="570" y="470" />
            </Array>
          </mxGeometry>
        </mxCell>
        <mxCell id="77" value="" style="edgeStyle=elbowEdgeStyle;elbow=horizontal;strokeColor=#990000;strokeWidth=2" parent="1" source="5" target="9" edge="1">
          <mxGeometry width="100" height="100" relative="1" as="geometry">
            <mxPoint x="400" y="590" as="sourcePoint" />
            <mxPoint x="500" y="490" as="targetPoint" />
            <Array as="points">
              <mxPoint x="560" y="480" />
            </Array>
          </mxGeometry>
        </mxCell>
        <mxCell id="78" value="" style="edgeStyle=elbowEdgeStyle;elbow=horizontal;strokeColor=#990000;strokeWidth=2" parent="1" source="15" target="9" edge="1">
          <mxGeometry width="100" height="100" relative="1" as="geometry">
            <mxPoint x="430" y="700" as="sourcePoint" />
            <mxPoint x="530" y="600" as="targetPoint" />
          </mxGeometry>
        </mxCell>
        <mxCell id="79" value="Hardware and&#xa;Software specs" style="text;spacingTop=-5;align=center" parent="1" vertex="1">
          <mxGeometry x="625" y="610" width="30" height="20" as="geometry" />
        </mxCell>
        <mxCell id="81" value="" style="edgeStyle=elbowEdgeStyle;elbow=horizontal;exitX=0;exitY=0.75;strokeColor=#990000;strokeWidth=2" parent="1" source="9" target="13" edge="1">
          <mxGeometry width="100" height="100" relative="1" as="geometry">
            <mxPoint x="420" y="730" as="sourcePoint" />
            <mxPoint x="520" y="630" as="targetPoint" />
            <Array as="points">
              <mxPoint x="470" y="630" />
            </Array>
          </mxGeometry>
        </mxCell>
        <mxCell id="82" value="Progress&#xa;Reports" style="text;spacingTop=-5;align=center" parent="1" vertex="1">
          <mxGeometry x="481.0000000000004" y="610.0000000000001" width="30" height="20" as="geometry" />
        </mxCell>
        <mxCell id="83" value="" style="edgeStyle=elbowEdgeStyle;elbow=horizontal;strokeColor=#990000;strokeWidth=2" parent="1" source="11" target="13" edge="1">
          <mxGeometry width="100" height="100" relative="1" as="geometry">
            <mxPoint x="200" y="660.0000000000002" as="sourcePoint" />
            <mxPoint x="230.0000000000001" y="650" as="targetPoint" />
          </mxGeometry>
        </mxCell>
        <mxCell id="84" value="Progress&#xa;Reports" style="text;spacingTop=-5;align=center" parent="1" vertex="1">
          <mxGeometry x="410.00000000000017" y="610.0000000000002" width="30" height="20" as="geometry" />
        </mxCell>
        <mxCell id="85" value="" style="edgeStyle=elbowEdgeStyle;elbow=horizontal;strokeColor=#990000;strokeWidth=2" parent="1" source="10" target="13" edge="1">
          <mxGeometry width="100" height="100" relative="1" as="geometry">
            <mxPoint x="130.0000000000001" y="740" as="sourcePoint" />
            <mxPoint x="230.0000000000001" y="640" as="targetPoint" />
            <Array as="points">
              <mxPoint x="244" y="630" />
            </Array>
          </mxGeometry>
        </mxCell>
        <mxCell id="86" value="Progress&#xa;Reports" style="text;spacingTop=-5;align=center" parent="1" vertex="1">
          <mxGeometry x="255.99999999999994" y="650.0000000000001" width="30" height="20" as="geometry" />
        </mxCell>
        <mxCell id="87" value="" style="edgeStyle=elbowEdgeStyle;elbow=vertical;strokeColor=#990000;strokeWidth=2" parent="1" source="10" target="14" edge="1">
          <mxGeometry width="100" height="100" relative="1" as="geometry">
            <mxPoint x="70" y="740" as="sourcePoint" />
            <mxPoint x="170" y="640" as="targetPoint" />
          </mxGeometry>
        </mxCell>
        <mxCell id="88" value="" style="edgeStyle=elbowEdgeStyle;elbow=horizontal;strokeColor=#990000;strokeWidth=2" parent="1" source="5" target="11" edge="1">
          <mxGeometry width="100" height="100" relative="1" as="geometry">
            <mxPoint x="50" y="500" as="sourcePoint" />
            <mxPoint x="150" y="400" as="targetPoint" />
            <Array as="points">
              <mxPoint x="390" y="470" />
            </Array>
          </mxGeometry>
        </mxCell>
        <mxCell id="89" value="" style="edgeStyle=elbowEdgeStyle;elbow=horizontal;strokeColor=#990000;strokeWidth=2" parent="1" source="11" target="5" edge="1">
          <mxGeometry width="100" height="100" relative="1" as="geometry">
            <mxPoint x="59.999999999999886" y="510" as="sourcePoint" />
            <mxPoint x="159.9999999999999" y="410" as="targetPoint" />
            <Array as="points">
              <mxPoint x="410" y="470" />
            </Array>
          </mxGeometry>
        </mxCell>
        <mxCell id="90" value="Version&#xa;specs" style="text;spacingTop=-5;align=center" parent="1" vertex="1">
          <mxGeometry x="261" y="461" width="30" height="20" as="geometry" />
        </mxCell>
        <mxCell id="91" value="Certificates,&#xa;system&#xa;libraries" style="text;spacingTop=-5;align=center" parent="1" vertex="1">
          <mxGeometry x="180" y="461.0000000000002" width="30" height="20" as="geometry" />
        </mxCell>
        <mxCell id="92" value="" style="edgeStyle=elbowEdgeStyle;elbow=horizontal;strokeColor=#990000;strokeWidth=2" parent="1" source="5" target="10" edge="1">
          <mxGeometry width="100" height="100" relative="1" as="geometry">
            <mxPoint x="30.000000000000114" y="500" as="sourcePoint" />
            <mxPoint x="130.0000000000001" y="400" as="targetPoint" />
            <Array as="points">
              <mxPoint x="250" y="470" />
            </Array>
          </mxGeometry>
        </mxCell>
        <mxCell id="93" value="" style="edgeStyle=elbowEdgeStyle;elbow=horizontal;strokeColor=#990000;strokeWidth=2" parent="1" source="10" target="5" edge="1">
          <mxGeometry width="100" height="100" relative="1" as="geometry">
            <mxPoint x="40" y="510" as="sourcePoint" />
            <mxPoint x="140" y="410" as="targetPoint" />
            <Array as="points">
              <mxPoint x="230" y="470" />
            </Array>
          </mxGeometry>
        </mxCell>
        <mxCell id="94" value="System&#xa;specs" style="text;spacingTop=-5;align=center" parent="1" vertex="1">
          <mxGeometry x="139.99999999999994" y="565.0000000000001" width="30" height="20" as="geometry" />
        </mxCell>
        <mxCell id="95" value="Design&#xa;specs" style="text;spacingTop=-5;align=center" parent="1" vertex="1">
          <mxGeometry x="423.49999999999994" y="461.0000000000002" width="30" height="20" as="geometry" />
        </mxCell>
        <mxCell id="96" value="System&#xa;version" style="text;spacingTop=-5;align=center" parent="1" vertex="1">
          <mxGeometry x="350.9999999999998" y="461" width="30" height="20" as="geometry" />
        </mxCell>
      </root>
    </mxGraphModel>
  </diagram>
  <diagram id="Lwclm1Yx3fwP0liq0sQZ" name="Page-2">
    <mxGraphModel dx="2249" dy="738" grid="1" gridSize="10" guides="1" tooltips="1" connect="1" arrows="1" fold="1" page="1" pageScale="1" pageWidth="827" pageHeight="1169" math="0" shadow="0">
      <root>
        <mxCell id="5Lme4M5RhHfmLf8KYvbb-0" />
        <mxCell id="5Lme4M5RhHfmLf8KYvbb-1" parent="5Lme4M5RhHfmLf8KYvbb-0" />
        <mxCell id="gRV_oFb6EoeBcZK8uxeF-0" value="&lt;p style=&quot;margin: 0px ; margin-top: 4px ; text-align: center ; text-decoration: underline&quot;&gt;Manager plane&lt;/p&gt;&lt;hr&gt;&lt;p style=&quot;margin: 0px ; margin-left: 8px&quot;&gt;&lt;br&gt;&lt;/p&gt;" style="verticalAlign=middle;align=center;overflow=fill;fontSize=12;fontFamily=Helvetica;html=1;rounded=1;fontStyle=1;strokeWidth=3;fillColor=#E6FFCC" vertex="1" parent="5Lme4M5RhHfmLf8KYvbb-1">
          <mxGeometry x="281" y="40" width="510" height="160" as="geometry" />
        </mxCell>
        <mxCell id="cLHzj7HbTYd12I5pMJS5-0" value="MiddleWare" style="shape=process;whiteSpace=wrap;align=center;verticalAlign=middle;size=0.0475;fontStyle=1;strokeWidth=3;fillColor=#FFCCCC" vertex="1" parent="5Lme4M5RhHfmLf8KYvbb-1">
          <mxGeometry x="340.9999999999999" y="270" width="400" height="50" as="geometry" />
        </mxCell>
        <mxCell id="zy2ay6cS12lt-rWf9jmR-14" style="edgeStyle=orthogonalEdgeStyle;curved=1;rounded=0;orthogonalLoop=1;jettySize=auto;html=1;entryX=0.5;entryY=0;entryDx=0;entryDy=0;strokeColor=#FFF4C3;strokeWidth=4;" edge="1" parent="5Lme4M5RhHfmLf8KYvbb-1" source="XoH216yIQsXO06mILtzT-0" target="XoH216yIQsXO06mILtzT-3">
          <mxGeometry relative="1" as="geometry" />
        </mxCell>
        <mxCell id="zy2ay6cS12lt-rWf9jmR-15" style="edgeStyle=orthogonalEdgeStyle;curved=1;rounded=0;orthogonalLoop=1;jettySize=auto;html=1;exitX=1;exitY=0.5;exitDx=0;exitDy=0;entryX=0.5;entryY=0;entryDx=0;entryDy=0;strokeColor=#FFF4C3;strokeWidth=4;" edge="1" parent="5Lme4M5RhHfmLf8KYvbb-1" source="XoH216yIQsXO06mILtzT-0" target="XoH216yIQsXO06mILtzT-4">
          <mxGeometry relative="1" as="geometry" />
        </mxCell>
        <mxCell id="XoH216yIQsXO06mILtzT-0" value="neutron-server" style="whiteSpace=wrap;align=center;verticalAlign=middle;fontStyle=1;strokeWidth=3;fillColor=#FFFFCC" vertex="1" parent="5Lme4M5RhHfmLf8KYvbb-1">
          <mxGeometry x="480" y="80" width="110" height="40" as="geometry" />
        </mxCell>
        <mxCell id="XoH216yIQsXO06mILtzT-10" style="edgeStyle=orthogonalEdgeStyle;rounded=0;orthogonalLoop=1;jettySize=auto;html=1;entryX=0.25;entryY=0;entryDx=0;entryDy=0;curved=1;fillColor=#fff2cc;strokeWidth=4;strokeColor=#FFF2CC;" edge="1" parent="5Lme4M5RhHfmLf8KYvbb-1" source="XoH216yIQsXO06mILtzT-3" target="cLHzj7HbTYd12I5pMJS5-0">
          <mxGeometry relative="1" as="geometry" />
        </mxCell>
        <mxCell id="XoH216yIQsXO06mILtzT-3" value="Self Plugin" style="whiteSpace=wrap;align=center;verticalAlign=middle;fontStyle=1;strokeWidth=3;fillColor=#FFFFCC" vertex="1" parent="5Lme4M5RhHfmLf8KYvbb-1">
          <mxGeometry x="331" y="140" width="110" height="30" as="geometry" />
        </mxCell>
        <mxCell id="XoH216yIQsXO06mILtzT-11" style="edgeStyle=orthogonalEdgeStyle;rounded=0;orthogonalLoop=1;jettySize=auto;html=1;entryX=0.75;entryY=0;entryDx=0;entryDy=0;curved=1;strokeColor=#99CCFF;strokeWidth=4;" edge="1" parent="5Lme4M5RhHfmLf8KYvbb-1" source="XoH216yIQsXO06mILtzT-4" target="cLHzj7HbTYd12I5pMJS5-0">
          <mxGeometry relative="1" as="geometry" />
        </mxCell>
        <mxCell id="XoH216yIQsXO06mILtzT-4" value="3rd Plugin" style="whiteSpace=wrap;align=center;verticalAlign=middle;fontStyle=1;strokeWidth=3;fillColor=#dae8fc;strokeColor=#6c8ebf;" vertex="1" parent="5Lme4M5RhHfmLf8KYvbb-1">
          <mxGeometry x="621" y="140" width="110" height="30" as="geometry" />
        </mxCell>
        <mxCell id="XoH216yIQsXO06mILtzT-7" value="&lt;p style=&quot;margin: 0px ; margin-top: 4px ; text-align: center ; text-decoration: underline&quot;&gt;Controller plane&lt;/p&gt;&lt;hr&gt;&lt;p style=&quot;margin: 0px ; margin-left: 8px&quot;&gt;&lt;br&gt;&lt;/p&gt;" style="verticalAlign=middle;align=center;overflow=fill;fontSize=12;fontFamily=Helvetica;html=1;rounded=1;fontStyle=1;strokeWidth=3;fillColor=#E6FFCC" vertex="1" parent="5Lme4M5RhHfmLf8KYvbb-1">
          <mxGeometry x="280" y="390" width="522" height="140" as="geometry" />
        </mxCell>
        <mxCell id="XoH216yIQsXO06mILtzT-8" value="Self Agent" style="whiteSpace=wrap;align=center;verticalAlign=middle;fontStyle=1;strokeWidth=3;fillColor=#FFFFCC" vertex="1" parent="5Lme4M5RhHfmLf8KYvbb-1">
          <mxGeometry x="331" y="460" width="110" height="30" as="geometry" />
        </mxCell>
        <mxCell id="XoH216yIQsXO06mILtzT-9" value="3rd Agent" style="whiteSpace=wrap;align=center;verticalAlign=middle;fontStyle=1;strokeWidth=3;fillColor=#dae8fc;strokeColor=#6c8ebf;" vertex="1" parent="5Lme4M5RhHfmLf8KYvbb-1">
          <mxGeometry x="621" y="460" width="110" height="30" as="geometry" />
        </mxCell>
        <mxCell id="zy2ay6cS12lt-rWf9jmR-0" style="edgeStyle=orthogonalEdgeStyle;rounded=0;orthogonalLoop=1;jettySize=auto;html=1;strokeWidth=4;curved=1;strokeColor=#FFE6CC;exitX=0.208;exitY=1.02;exitDx=0;exitDy=0;exitPerimeter=0;" edge="1" parent="5Lme4M5RhHfmLf8KYvbb-1" source="cLHzj7HbTYd12I5pMJS5-0" target="XoH216yIQsXO06mILtzT-8">
          <mxGeometry relative="1" as="geometry">
            <Array as="points">
              <mxPoint x="424" y="370" />
              <mxPoint x="386" y="370" />
            </Array>
          </mxGeometry>
        </mxCell>
        <mxCell id="zy2ay6cS12lt-rWf9jmR-1" style="edgeStyle=orthogonalEdgeStyle;curved=1;rounded=0;orthogonalLoop=1;jettySize=auto;html=1;strokeWidth=4;strokeColor=#99CCFF;exitX=0.75;exitY=1;exitDx=0;exitDy=0;" edge="1" parent="5Lme4M5RhHfmLf8KYvbb-1" source="cLHzj7HbTYd12I5pMJS5-0" target="XoH216yIQsXO06mILtzT-9">
          <mxGeometry relative="1" as="geometry" />
        </mxCell>
        <mxCell id="zy2ay6cS12lt-rWf9jmR-10" value="" style="group;fillColor=#f5f5f5;gradientColor=#b3b3b3;rounded=1;" vertex="1" connectable="0" parent="5Lme4M5RhHfmLf8KYvbb-1">
          <mxGeometry x="282" y="585" width="530" height="164" as="geometry" />
        </mxCell>
        <mxCell id="gRV_oFb6EoeBcZK8uxeF-1" value="&lt;p style=&quot;margin: 0px ; margin-top: 4px ; text-align: center ; text-decoration: underline&quot;&gt;Data plane&lt;/p&gt;&lt;hr&gt;&lt;p style=&quot;margin: 0px ; margin-left: 8px&quot;&gt;&lt;br&gt;&lt;/p&gt;" style="verticalAlign=middle;align=center;overflow=fill;fontSize=12;fontFamily=Helvetica;html=1;rounded=1;fontStyle=1;strokeWidth=3;fillColor=none;" vertex="1" parent="zy2ay6cS12lt-rWf9jmR-10">
          <mxGeometry width="530" height="164" as="geometry" />
        </mxCell>
        <mxCell id="zy2ay6cS12lt-rWf9jmR-2" value="OpenvSwitch" style="whiteSpace=wrap;align=center;verticalAlign=middle;fontStyle=1;strokeWidth=3;fillColor=#FFFFCC" vertex="1" parent="zy2ay6cS12lt-rWf9jmR-10">
          <mxGeometry x="49" y="33" width="110" height="30" as="geometry" />
        </mxCell>
        <mxCell id="zy2ay6cS12lt-rWf9jmR-3" value="HAProxy" style="whiteSpace=wrap;align=center;verticalAlign=middle;fontStyle=1;strokeWidth=3;fillColor=#FFFFCC" vertex="1" parent="zy2ay6cS12lt-rWf9jmR-10">
          <mxGeometry x="70" y="58" width="110" height="30" as="geometry" />
        </mxCell>
        <mxCell id="zy2ay6cS12lt-rWf9jmR-4" value="IPtables" style="whiteSpace=wrap;align=center;verticalAlign=middle;fontStyle=1;strokeWidth=3;fillColor=#FFFFCC" vertex="1" parent="zy2ay6cS12lt-rWf9jmR-10">
          <mxGeometry x="87" y="82" width="110" height="30" as="geometry" />
        </mxCell>
        <mxCell id="zy2ay6cS12lt-rWf9jmR-5" value="Dnsmasq" style="whiteSpace=wrap;align=center;verticalAlign=middle;fontStyle=1;strokeWidth=3;fillColor=#FFFFCC" vertex="1" parent="zy2ay6cS12lt-rWf9jmR-10">
          <mxGeometry x="106" y="105" width="110" height="30" as="geometry" />
        </mxCell>
        <mxCell id="zy2ay6cS12lt-rWf9jmR-6" value="3rd NFV" style="whiteSpace=wrap;align=center;verticalAlign=middle;fontStyle=1;strokeWidth=3;fillColor=#dae8fc;strokeColor=#6c8ebf;" vertex="1" parent="zy2ay6cS12lt-rWf9jmR-10">
          <mxGeometry x="308" y="33" width="110" height="30" as="geometry" />
        </mxCell>
        <mxCell id="zy2ay6cS12lt-rWf9jmR-7" value="3rd NetDevice" style="whiteSpace=wrap;align=center;verticalAlign=middle;fontStyle=1;strokeWidth=3;fillColor=#dae8fc;strokeColor=#6c8ebf;" vertex="1" parent="zy2ay6cS12lt-rWf9jmR-10">
          <mxGeometry x="330" y="52" width="110" height="30" as="geometry" />
        </mxCell>
        <mxCell id="zy2ay6cS12lt-rWf9jmR-8" value="......" style="whiteSpace=wrap;align=center;verticalAlign=middle;fontStyle=1;strokeWidth=3;fillColor=#dae8fc;strokeColor=#6c8ebf;" vertex="1" parent="zy2ay6cS12lt-rWf9jmR-10">
          <mxGeometry x="349" y="75" width="110" height="30" as="geometry" />
        </mxCell>
        <mxCell id="zy2ay6cS12lt-rWf9jmR-9" value="......" style="whiteSpace=wrap;align=center;verticalAlign=middle;fontStyle=1;strokeWidth=3;fillColor=#FFFFCC" vertex="1" parent="zy2ay6cS12lt-rWf9jmR-10">
          <mxGeometry x="130" y="128" width="110" height="30" as="geometry" />
        </mxCell>
        <mxCell id="zy2ay6cS12lt-rWf9jmR-12" style="edgeStyle=orthogonalEdgeStyle;curved=1;rounded=0;orthogonalLoop=1;jettySize=auto;html=1;entryX=0.5;entryY=0;entryDx=0;entryDy=0;strokeWidth=4;fillColor=#fff2cc;strokeColor=#FFF4C3;" edge="1" parent="5Lme4M5RhHfmLf8KYvbb-1" source="XoH216yIQsXO06mILtzT-8" target="zy2ay6cS12lt-rWf9jmR-2">
          <mxGeometry relative="1" as="geometry" />
        </mxCell>
        <mxCell id="zy2ay6cS12lt-rWf9jmR-13" style="edgeStyle=orthogonalEdgeStyle;curved=1;rounded=0;orthogonalLoop=1;jettySize=auto;html=1;strokeWidth=4;strokeColor=#99CCFF;" edge="1" parent="5Lme4M5RhHfmLf8KYvbb-1" source="XoH216yIQsXO06mILtzT-9" target="zy2ay6cS12lt-rWf9jmR-6">
          <mxGeometry relative="1" as="geometry" />
        </mxCell>
        <mxCell id="zy2ay6cS12lt-rWf9jmR-17" value="&lt;div&gt;&lt;b style=&quot;font-size: 14px&quot;&gt;Manager Plane&lt;/b&gt;&lt;span style=&quot;font-size: 14px&quot;&gt;: 提供北向api，&lt;/span&gt;&lt;/div&gt;&lt;font&gt;&lt;font style=&quot;font-size: 14px&quot;&gt;接收用户发送的网络资源请求。&lt;br&gt;&lt;div&gt;&lt;span&gt;并通过Plugin往南向发送配置参数。&lt;/span&gt;&lt;/div&gt;&lt;/font&gt;&lt;/font&gt;" style="text;html=1;resizable=0;autosize=1;align=left;verticalAlign=middle;points=[];fillColor=none;strokeColor=none;rounded=0;" vertex="1" parent="5Lme4M5RhHfmLf8KYvbb-1">
          <mxGeometry x="30" y="95" width="240" height="50" as="geometry" />
        </mxCell>
        <mxCell id="zy2ay6cS12lt-rWf9jmR-30" style="edgeStyle=orthogonalEdgeStyle;curved=1;rounded=0;orthogonalLoop=1;jettySize=auto;html=1;entryX=0.136;entryY=0.139;entryDx=0;entryDy=0;entryPerimeter=0;strokeColor=#FFF4C3;strokeWidth=4;" edge="1" parent="5Lme4M5RhHfmLf8KYvbb-1" source="zy2ay6cS12lt-rWf9jmR-18">
          <mxGeometry relative="1" as="geometry">
            <mxPoint x="-725.2" y="410.02" as="targetPoint" />
          </mxGeometry>
        </mxCell>
        <mxCell id="zy2ay6cS12lt-rWf9jmR-18" value="ovs-Agent" style="whiteSpace=wrap;align=center;verticalAlign=middle;fontStyle=1;strokeWidth=3;fillColor=#FFFFCC" vertex="1" parent="5Lme4M5RhHfmLf8KYvbb-1">
          <mxGeometry x="-780" y="260" width="110" height="30" as="geometry" />
        </mxCell>
        <mxCell id="zy2ay6cS12lt-rWf9jmR-31" style="edgeStyle=orthogonalEdgeStyle;curved=1;rounded=0;orthogonalLoop=1;jettySize=auto;html=1;entryX=0.491;entryY=0.417;entryDx=0;entryDy=0;entryPerimeter=0;strokeColor=#82b366;strokeWidth=4;gradientColor=#97d077;fillColor=#d5e8d4;" edge="1" parent="5Lme4M5RhHfmLf8KYvbb-1" source="zy2ay6cS12lt-rWf9jmR-19">
          <mxGeometry relative="1" as="geometry">
            <mxPoint x="-529.95" y="460.05999999999995" as="targetPoint" />
            <Array as="points">
              <mxPoint x="-635" y="308" />
              <mxPoint x="-580" y="308" />
              <mxPoint x="-580" y="450" />
              <mxPoint x="-530" y="450" />
            </Array>
          </mxGeometry>
        </mxCell>
        <mxCell id="zy2ay6cS12lt-rWf9jmR-19" value="l3-Agent" style="whiteSpace=wrap;align=center;verticalAlign=middle;fontStyle=1;strokeWidth=3;fillColor=#d5e8d4;gradientColor=#97d077;strokeColor=#82b366;" vertex="1" parent="5Lme4M5RhHfmLf8KYvbb-1">
          <mxGeometry x="-690" y="200" width="110" height="30" as="geometry" />
        </mxCell>
        <mxCell id="zy2ay6cS12lt-rWf9jmR-32" style="edgeStyle=orthogonalEdgeStyle;curved=1;rounded=0;orthogonalLoop=1;jettySize=auto;html=1;entryX=0.273;entryY=0.806;entryDx=0;entryDy=0;entryPerimeter=0;strokeColor=#d6b656;strokeWidth=4;gradientColor=#ffd966;fillColor=#fff2cc;" edge="1" parent="5Lme4M5RhHfmLf8KYvbb-1" source="zy2ay6cS12lt-rWf9jmR-20">
          <mxGeometry relative="1" as="geometry">
            <mxPoint x="-649.8499999999999" y="530.0799999999999" as="targetPoint" />
            <Array as="points">
              <mxPoint x="-535" y="338" />
              <mxPoint x="-650" y="338" />
            </Array>
          </mxGeometry>
        </mxCell>
        <mxCell id="zy2ay6cS12lt-rWf9jmR-33" style="edgeStyle=orthogonalEdgeStyle;curved=1;rounded=0;orthogonalLoop=1;jettySize=auto;html=1;strokeColor=#d6b656;strokeWidth=4;gradientColor=#ffd966;fillColor=#fff2cc;" edge="1" parent="5Lme4M5RhHfmLf8KYvbb-1" source="zy2ay6cS12lt-rWf9jmR-20">
          <mxGeometry relative="1" as="geometry">
            <mxPoint x="-525" y="450" as="targetPoint" />
          </mxGeometry>
        </mxCell>
        <mxCell id="zy2ay6cS12lt-rWf9jmR-20" value="dhcp-Agent" style="whiteSpace=wrap;align=center;verticalAlign=middle;fontStyle=1;strokeWidth=3;fillColor=#fff2cc;gradientColor=#ffd966;strokeColor=#d6b656;" vertex="1" parent="5Lme4M5RhHfmLf8KYvbb-1">
          <mxGeometry x="-590" y="260" width="110" height="30" as="geometry" />
        </mxCell>
        <mxCell id="zy2ay6cS12lt-rWf9jmR-34" style="edgeStyle=orthogonalEdgeStyle;curved=1;rounded=0;orthogonalLoop=1;jettySize=auto;html=1;exitX=0.5;exitY=1;exitDx=0;exitDy=0;entryX=0.691;entryY=0.139;entryDx=0;entryDy=0;entryPerimeter=0;strokeColor=#b85450;strokeWidth=4;gradientColor=#ea6b66;fillColor=#f8cecc;" edge="1" parent="5Lme4M5RhHfmLf8KYvbb-1" source="zy2ay6cS12lt-rWf9jmR-21">
          <mxGeometry relative="1" as="geometry">
            <mxPoint x="-419.95000000000005" y="410.02" as="targetPoint" />
          </mxGeometry>
        </mxCell>
        <mxCell id="zy2ay6cS12lt-rWf9jmR-21" value="vpn-Agent" style="whiteSpace=wrap;align=center;verticalAlign=middle;fontStyle=1;strokeWidth=3;fillColor=#f8cecc;gradientColor=#ea6b66;strokeColor=#b85450;" vertex="1" parent="5Lme4M5RhHfmLf8KYvbb-1">
          <mxGeometry x="-490" y="200" width="110" height="30" as="geometry" />
        </mxCell>
        <mxCell id="zy2ay6cS12lt-rWf9jmR-35" style="edgeStyle=orthogonalEdgeStyle;curved=1;rounded=0;orthogonalLoop=1;jettySize=auto;html=1;entryX=0.891;entryY=0.472;entryDx=0;entryDy=0;entryPerimeter=0;strokeColor=#d79b00;strokeWidth=4;gradientColor=#ffa500;fillColor=#ffcd28;" edge="1" parent="5Lme4M5RhHfmLf8KYvbb-1" source="zy2ay6cS12lt-rWf9jmR-22">
          <mxGeometry relative="1" as="geometry">
            <mxPoint x="-309.95000000000005" y="469.96000000000004" as="targetPoint" />
          </mxGeometry>
        </mxCell>
        <mxCell id="zy2ay6cS12lt-rWf9jmR-22" value="lb-Agent" style="whiteSpace=wrap;align=center;verticalAlign=middle;fontStyle=1;strokeWidth=3;fillColor=#ffcd28;gradientColor=#ffa500;strokeColor=#d79b00;" vertex="1" parent="5Lme4M5RhHfmLf8KYvbb-1">
          <mxGeometry x="-400" y="260" width="110" height="30" as="geometry" />
        </mxCell>
        <mxCell id="zy2ay6cS12lt-rWf9jmR-24" value="OpenvSwitch" style="ellipse;whiteSpace=wrap;html=1;rounded=1;strokeColor=#666666;gradientColor=#b3b3b3;fillColor=#f5f5f5;" vertex="1" parent="5Lme4M5RhHfmLf8KYvbb-1">
          <mxGeometry x="-780" y="405" width="110" height="40" as="geometry" />
        </mxCell>
        <mxCell id="zy2ay6cS12lt-rWf9jmR-25" value="linux namespace" style="ellipse;whiteSpace=wrap;html=1;rounded=1;strokeColor=#666666;gradientColor=#b3b3b3;fillColor=#f5f5f5;" vertex="1" parent="5Lme4M5RhHfmLf8KYvbb-1">
          <mxGeometry x="-590" y="455" width="110" height="40" as="geometry" />
        </mxCell>
        <mxCell id="zy2ay6cS12lt-rWf9jmR-26" value="haproxy" style="ellipse;whiteSpace=wrap;html=1;rounded=1;strokeColor=#666666;gradientColor=#b3b3b3;fillColor=#f5f5f5;" vertex="1" parent="5Lme4M5RhHfmLf8KYvbb-1">
          <mxGeometry x="-370" y="465" width="110" height="40" as="geometry" />
        </mxCell>
        <mxCell id="zy2ay6cS12lt-rWf9jmR-27" value="OpenSwan" style="ellipse;whiteSpace=wrap;html=1;rounded=1;strokeColor=#666666;gradientColor=#b3b3b3;fillColor=#f5f5f5;" vertex="1" parent="5Lme4M5RhHfmLf8KYvbb-1">
          <mxGeometry x="-480" y="405" width="110" height="40" as="geometry" />
        </mxCell>
        <mxCell id="zy2ay6cS12lt-rWf9jmR-28" value="Dnsmasq" style="ellipse;whiteSpace=wrap;html=1;rounded=1;strokeColor=#666666;gradientColor=#b3b3b3;fillColor=#f5f5f5;" vertex="1" parent="5Lme4M5RhHfmLf8KYvbb-1">
          <mxGeometry x="-700" y="515" width="110" height="40" as="geometry" />
        </mxCell>
        <mxCell id="zy2ay6cS12lt-rWf9jmR-38" style="edgeStyle=orthogonalEdgeStyle;curved=1;rounded=0;orthogonalLoop=1;jettySize=auto;html=1;entryX=0.5;entryY=0;entryDx=0;entryDy=0;strokeColor=#6c8ebf;strokeWidth=4;gradientColor=#7ea6e0;fillColor=#dae8fc;" edge="1" parent="5Lme4M5RhHfmLf8KYvbb-1" source="zy2ay6cS12lt-rWf9jmR-36" target="zy2ay6cS12lt-rWf9jmR-37">
          <mxGeometry relative="1" as="geometry" />
        </mxCell>
        <mxCell id="zy2ay6cS12lt-rWf9jmR-36" value="3rd Agent" style="whiteSpace=wrap;align=center;verticalAlign=middle;fontStyle=1;strokeWidth=3;fillColor=#dae8fc;strokeColor=#6c8ebf;" vertex="1" parent="5Lme4M5RhHfmLf8KYvbb-1">
          <mxGeometry x="-200" y="260" width="110" height="30" as="geometry" />
        </mxCell>
        <mxCell id="zy2ay6cS12lt-rWf9jmR-37" value="3rd Device" style="ellipse;whiteSpace=wrap;html=1;rounded=1;strokeColor=#666666;gradientColor=#b3b3b3;fillColor=#f5f5f5;" vertex="1" parent="5Lme4M5RhHfmLf8KYvbb-1">
          <mxGeometry x="-200" y="405" width="110" height="40" as="geometry" />
        </mxCell>
        <mxCell id="zy2ay6cS12lt-rWf9jmR-39" value="" style="rounded=0;whiteSpace=wrap;html=1;strokeColor=#000000;fillColor=none;strokeWidth=5;" vertex="1" parent="5Lme4M5RhHfmLf8KYvbb-1">
          <mxGeometry x="-800" y="370" width="720" height="210" as="geometry" />
        </mxCell>
      </root>
    </mxGraphModel>
  </diagram>
</mxfile>
